<svg xmlns="http://www.w3.org/2000/svg" viewBox="0 0 360 220" role="img" aria-labelledby="title desc">
  <title id="title">Camp Kit Illustration</title>
  <desc id="desc">Original sepia line illustration of a backpack and lantern.</desc>
  <g fill="none" stroke="#8A7460" stroke-linecap="round" stroke-linejoin="round" opacity="0.78">
    <path d="M164 185c-50-1-89 4-126 13M202 185c48-1 89 5 121 13" stroke-width="3" opacity="0.35"/>
    <path d="M143 77c4-31 22-51 48-51 27 0 45 20 49 51" stroke-width="7"/>
    <rect x="116" y="64" width="145" height="135" rx="25" stroke-width="7"/>
    <path d="M116 113h145M139 135h82M142 161h55" stroke-width="5"/>
    <path d="M146 62c5-20 17-31 36-34M225 62c-5-20-17-31-36-34" stroke-width="4" opacity="0.65"/>
    <path d="M106 100c-22 19-25 63-7 90M270 100c22 19 25 63 7 90" stroke-width="5"/>
    <path d="M75 114c10 9 16 20 16 33 0 27-18 48-41 48s-41-21-41-48c0-13 6-24 16-33" stroke-width="5"/>
    <path d="M25 114h50M32 103h36M42 88h18M34 195h32" stroke-width="5"/>
    <path d="M31 153c9 11 29 11 39 0" stroke-width="4" opacity="0.55"/>
    <path d="M52 88c0-18 8-31 22-39" stroke-width="4" opacity="0.45"/>
    <path d="M300 75c10 5 17 16 17 29 0 18-14 31-31 31" stroke-width="4" opacity="0.55"/>
    <path d="M307 77c17 2 31 14 35 30" stroke-width="3" opacity="0.35"/>
    <path d="M292 144c13 9 25 22 35 40" stroke-width="4" opacity="0.45"/>
  </g>
</svg>
